<?xml version="1.0" encoding="utf-8"?>
<!DOCTYPE svg PUBLIC "-//W3C//DTD SVG 1.1//EN" "http://www.w3.org/Graphics/SVG/1.1/DTD/svg11.dtd">
<svg style="width:308px;height:308px;" version="1.1" id="图形" xmlns="http://www.w3.org/2000/svg" xmlns:xlink="http://www.w3.org/1999/xlink" x="0px" y="0px" width="1026px" height="1024px" viewBox="0 0 1026 1024" enable-background="new 0 0 1026 1024" xml:space="preserve">
  <path class="svgpath" data-index="path_0" fill="#56abe4" d="M435.894272 542.031872l359.942144 0c0 0-1.468416-222.672896-186.58304-279.805952 47.013888-29.298688 92.557312-45.4144 132.222976-42.483712 101.371904 8.790016 71.989248 120.12544 71.989248 120.12544 10.285056-5.859328 61.704192-130.379776-63.172608-145.02912-63.172608-7.325696-135.161856 16.113664-204.212224 57.133056-19.099648-1.46432-39.667712-1.46432-63.172608 0-164.544512 14.649344-235.065344 153.819136-217.434112 285.66528C202.297344 640.182272 168.507392 748.589056 212.5824 798.398464c64.643072 68.851712 202.743808 13.185024 236.53376-32.229376-170.422272 68.851712-198.336512 20.508672-192.458752-36.624384 2.93888-30.763008 8.814592-64.458752 32.321536-111.335424 36.728832 82.036736 111.654912 145.02912 221.841408 152.354816 99.90144 7.325696 239.47264-68.851712 274.731008-183.117824-167.483392 1.46432-167.483392 0-167.483392 0C581.339136 681.201664 434.423808 684.132352 435.894272 542.031872L435.894272 542.031872zM622.475264 465.854464l-183.64416 0c0 0 0-90.826752 86.679552-95.22176C613.660672 367.702016 622.475264 465.854464 622.475264 465.854464z" />
<path class="svgpath" data-index="path_1" fill="#56abe4" d="M513.759232 0c139.569152 0 268.855296 57.133056 361.412608 150.890496 92.557312 92.291072 149.854208 219.742208 149.854208 361.842688 0 140.63616-57.296896 268.085248-149.854208 360.378368C782.614528 966.866944 653.328384 1024 513.759232 1024c-142.508032 0-270.323712-57.133056-362.881024-150.890496C58.320896 780.818432 1.024 653.367296 1.024 512.733184c0-142.10048 57.296896-269.551616 149.854208-361.842688C243.433472 57.133056 371.2512 0 513.759232 0L513.759232 0zM832.565248 191.90784c-82.272256-82.036736-195.397632-131.846144-318.806016-131.846144-124.878848 0-239.47264 49.80736-320.274432 131.846144-82.272256 82.036736-133.69344 194.838528-133.69344 320.823296 0 124.520448 51.421184 237.32224 133.69344 319.358976 80.80384 82.036736 195.397632 131.846144 320.274432 131.846144 123.408384 0 236.53376-49.80736 318.806016-131.846144s133.69344-194.838528 133.69344-319.358976C966.258688 386.746368 914.837504 273.946624 832.565248 191.90784z" />

</svg>
